<mxfile host="app.diagrams.net" agent="Mozilla/5.0 (Windows NT 10.0; Win64; x64) AppleWebKit/537.36 (KHTML, like Gecko) Chrome/139.0.0.0 Safari/537.36 Edg/139.0.0.0" version="28.1.0">
  <diagram name="Page-1" id="DY-9fdaGik17t237TUFz">
    <mxGraphModel dx="3013" dy="1436" grid="1" gridSize="10" guides="1" tooltips="1" connect="1" arrows="1" fold="1" page="1" pageScale="1" pageWidth="827" pageHeight="1169" math="0" shadow="0">
      <root>
        <mxCell id="0" />
        <mxCell id="1" parent="0" />
        <mxCell id="XRlT12yHzMcgYmVl5bae-1" value="&lt;b&gt;GCP&lt;/b&gt;" style="rounded=1;whiteSpace=wrap;html=1;verticalAlign=top;align=center;arcSize=3;fontSize=20;spacingLeft=0;fillColor=#d5e8d4;strokeColor=#82b366;" vertex="1" parent="1">
          <mxGeometry x="877.5" y="330" width="1132.5" height="690" as="geometry" />
        </mxCell>
        <mxCell id="XRlT12yHzMcgYmVl5bae-2" value="&lt;b&gt;STELLAIRE&lt;/b&gt;" style="rounded=1;whiteSpace=wrap;html=1;verticalAlign=top;align=center;arcSize=4;fontSize=20;spacingLeft=0;fillColor=#fff2cc;strokeColor=#d6b656;" vertex="1" parent="1">
          <mxGeometry x="1350" y="360" width="640" height="630" as="geometry" />
        </mxCell>
        <mxCell id="XRlT12yHzMcgYmVl5bae-3" value="&lt;div&gt;&lt;font&gt;&lt;u style=&quot;&quot;&gt;&lt;font style=&quot;color: light-dark(rgb(51, 153, 255), rgb(51, 153, 255));&quot;&gt;&lt;font&gt;Cloud SQL&lt;/font&gt;&lt;br&gt;&lt;/font&gt;&lt;/u&gt;&lt;font style=&quot;color: rgb(0, 0, 0);&quot;&gt;(PostgresSQL)&lt;/font&gt;&lt;/font&gt;&lt;/div&gt;" style="rounded=1;whiteSpace=wrap;html=1;verticalAlign=top;arcSize=4;" vertex="1" parent="1">
          <mxGeometry x="1428.96" y="700" width="196.04" height="250" as="geometry" />
        </mxCell>
        <mxCell id="XRlT12yHzMcgYmVl5bae-4" value="&lt;b&gt;Orchyde&lt;/b&gt;" style="rounded=1;whiteSpace=wrap;html=1;verticalAlign=top;align=center;arcSize=4;fontSize=20;spacingLeft=0;fillColor=#ffe6cc;strokeColor=#d79b00;" vertex="1" parent="1">
          <mxGeometry x="910.25" y="690" width="429.75" height="300" as="geometry" />
        </mxCell>
        <mxCell id="XRlT12yHzMcgYmVl5bae-5" value="&lt;b&gt;CROCUS&lt;/b&gt;" style="rounded=1;whiteSpace=wrap;html=1;verticalAlign=top;align=center;arcSize=4;fontSize=20;spacingLeft=0;fillColor=#f9f7ed;strokeColor=#36393d;" vertex="1" parent="1">
          <mxGeometry x="910.25" y="360" width="429.75" height="290" as="geometry" />
        </mxCell>
        <mxCell id="XRlT12yHzMcgYmVl5bae-6" value="&lt;font style=&quot;color: rgb(51, 153, 255);&quot;&gt;&lt;u&gt;BQ&lt;/u&gt;&lt;/font&gt;&lt;div&gt;&lt;br&gt;&lt;/div&gt;" style="rounded=1;whiteSpace=wrap;html=1;verticalAlign=top;arcSize=4;" vertex="1" parent="1">
          <mxGeometry x="1088.96" y="410" width="196.04" height="204.5" as="geometry" />
        </mxCell>
        <mxCell id="XRlT12yHzMcgYmVl5bae-7" value="&lt;b&gt;Onprem&lt;/b&gt;" style="rounded=1;whiteSpace=wrap;html=1;verticalAlign=top;align=center;arcSize=3;fontSize=20;spacingLeft=0;fillColor=#eeeeee;strokeColor=#36393d;" vertex="1" parent="1">
          <mxGeometry x="664.25" y="330" width="200" height="690" as="geometry" />
        </mxCell>
        <mxCell id="XRlT12yHzMcgYmVl5bae-8" style="edgeStyle=orthogonalEdgeStyle;rounded=0;orthogonalLoop=1;jettySize=auto;html=1;strokeColor=#FF0000;" edge="1" parent="1" source="XRlT12yHzMcgYmVl5bae-9" target="XRlT12yHzMcgYmVl5bae-42">
          <mxGeometry relative="1" as="geometry" />
        </mxCell>
        <mxCell id="XRlT12yHzMcgYmVl5bae-9" value="Collecte&lt;div&gt;CROCUS&lt;/div&gt;" style="verticalLabelPosition=bottom;html=1;verticalAlign=top;align=center;shape=mxgraph.azure.cloud_services_configuration_file;pointerEvents=1;" vertex="1" parent="1">
          <mxGeometry x="728.6199999999999" y="542.5" width="71.25" height="75" as="geometry" />
        </mxCell>
        <mxCell id="XRlT12yHzMcgYmVl5bae-10" style="edgeStyle=orthogonalEdgeStyle;rounded=0;orthogonalLoop=1;jettySize=auto;html=1;strokeColor=#FF0000;" edge="1" parent="1" source="XRlT12yHzMcgYmVl5bae-11" target="XRlT12yHzMcgYmVl5bae-13">
          <mxGeometry relative="1" as="geometry" />
        </mxCell>
        <mxCell id="XRlT12yHzMcgYmVl5bae-11" value="MÃ©tier&lt;div&gt;(interne)&lt;/div&gt;" style="image;sketch=0;aspect=fixed;html=1;points=[];align=center;fontSize=12;image=img/lib/mscae/Person.svg;" vertex="1" parent="1">
          <mxGeometry x="2221.5" y="895" width="37" height="50" as="geometry" />
        </mxCell>
        <mxCell id="XRlT12yHzMcgYmVl5bae-12" style="edgeStyle=orthogonalEdgeStyle;rounded=0;orthogonalLoop=1;jettySize=auto;html=1;strokeColor=#FF0000;entryX=1;entryY=0.5;entryDx=0;entryDy=0;" edge="1" parent="1" source="XRlT12yHzMcgYmVl5bae-13" target="XRlT12yHzMcgYmVl5bae-27">
          <mxGeometry relative="1" as="geometry">
            <mxPoint x="1971.1599999999999" y="920.4761904761908" as="targetPoint" />
          </mxGeometry>
        </mxCell>
        <mxCell id="XRlT12yHzMcgYmVl5bae-13" value="browser" style="verticalLabelPosition=bottom;html=1;verticalAlign=top;align=center;strokeColor=#36393d;fillColor=#eeeeee;shape=mxgraph.azure.computer;pointerEvents=1;" vertex="1" parent="1">
          <mxGeometry x="2039.9999999999998" y="890" width="66.67" height="60" as="geometry" />
        </mxCell>
        <mxCell id="XRlT12yHzMcgYmVl5bae-14" value="&lt;font style=&quot;color: rgb(51, 153, 255);&quot;&gt;&lt;u&gt;CR&lt;br&gt;&lt;/u&gt;&lt;/font&gt;Backend&lt;div&gt;(Python)&lt;/div&gt;" style="rounded=1;whiteSpace=wrap;html=1;" vertex="1" parent="1">
          <mxGeometry x="1698.5" y="766" width="120" height="70" as="geometry" />
        </mxCell>
        <mxCell id="XRlT12yHzMcgYmVl5bae-15" value="CRUD" style="text;html=1;align=center;verticalAlign=middle;resizable=0;points=[];autosize=1;strokeColor=none;fillColor=none;" vertex="1" parent="1">
          <mxGeometry x="1620.16" y="806" width="60" height="30" as="geometry" />
        </mxCell>
        <mxCell id="XRlT12yHzMcgYmVl5bae-16" value="call" style="text;html=1;align=center;verticalAlign=middle;resizable=0;points=[];autosize=1;strokeColor=none;fillColor=none;" vertex="1" parent="1">
          <mxGeometry x="1719.41" y="846.75" width="40" height="30" as="geometry" />
        </mxCell>
        <mxCell id="XRlT12yHzMcgYmVl5bae-17" value="respond" style="text;html=1;align=center;verticalAlign=middle;resizable=0;points=[];autosize=1;strokeColor=none;fillColor=none;" vertex="1" parent="1">
          <mxGeometry x="1751.5" y="846.75" width="70" height="30" as="geometry" />
        </mxCell>
        <mxCell id="XRlT12yHzMcgYmVl5bae-18" style="edgeStyle=orthogonalEdgeStyle;rounded=0;orthogonalLoop=1;jettySize=auto;html=1;entryX=0;entryY=0.5;entryDx=0;entryDy=0;strokeColor=#FF0000;" edge="1" parent="1" source="XRlT12yHzMcgYmVl5bae-19" target="XRlT12yHzMcgYmVl5bae-51">
          <mxGeometry relative="1" as="geometry" />
        </mxCell>
        <mxCell id="XRlT12yHzMcgYmVl5bae-19" value="Collecte&lt;div&gt;Orchyde&lt;/div&gt;" style="verticalLabelPosition=bottom;html=1;verticalAlign=top;align=center;shape=mxgraph.azure.cloud_services_configuration_file;pointerEvents=1;" vertex="1" parent="1">
          <mxGeometry x="728.6199999999999" y="889" width="71.25" height="75" as="geometry" />
        </mxCell>
        <mxCell id="XRlT12yHzMcgYmVl5bae-20" style="edgeStyle=orthogonalEdgeStyle;rounded=0;orthogonalLoop=1;jettySize=auto;html=1;entryX=0;entryY=0.5;entryDx=0;entryDy=0;entryPerimeter=0;strokeColor=#FF0000;" edge="1" parent="1" source="XRlT12yHzMcgYmVl5bae-34" target="XRlT12yHzMcgYmVl5bae-9">
          <mxGeometry relative="1" as="geometry">
            <mxPoint x="531.25" y="622.5555555555557" as="sourcePoint" />
            <Array as="points">
              <mxPoint x="570" y="580" />
              <mxPoint x="570" y="580" />
            </Array>
          </mxGeometry>
        </mxCell>
        <mxCell id="XRlT12yHzMcgYmVl5bae-21" value="provide files" style="text;html=1;align=center;verticalAlign=middle;resizable=0;points=[];autosize=1;strokeColor=none;fillColor=none;" vertex="1" parent="1">
          <mxGeometry x="543.75" y="577" width="90" height="30" as="geometry" />
        </mxCell>
        <mxCell id="XRlT12yHzMcgYmVl5bae-22" style="edgeStyle=orthogonalEdgeStyle;rounded=0;orthogonalLoop=1;jettySize=auto;html=1;entryX=0;entryY=0.5;entryDx=0;entryDy=0;entryPerimeter=0;strokeColor=#FF0000;" edge="1" parent="1" source="XRlT12yHzMcgYmVl5bae-34" target="XRlT12yHzMcgYmVl5bae-19">
          <mxGeometry relative="1" as="geometry">
            <mxPoint x="531.25" y="492.55555555555566" as="sourcePoint" />
            <Array as="points">
              <mxPoint x="639" y="580" />
              <mxPoint x="639" y="927" />
            </Array>
          </mxGeometry>
        </mxCell>
        <mxCell id="XRlT12yHzMcgYmVl5bae-23" value="(1)" style="text;html=1;align=center;verticalAlign=middle;resizable=0;points=[];autosize=1;strokeColor=none;fillColor=none;" vertex="1" parent="1">
          <mxGeometry x="568.75" y="550" width="40" height="30" as="geometry" />
        </mxCell>
        <mxCell id="XRlT12yHzMcgYmVl5bae-24" value="(2)" style="text;html=1;align=center;verticalAlign=middle;resizable=0;points=[];autosize=1;strokeColor=none;fillColor=none;" vertex="1" parent="1">
          <mxGeometry x="796" y="542.5" width="40" height="30" as="geometry" />
        </mxCell>
        <mxCell id="XRlT12yHzMcgYmVl5bae-25" value="(2)" style="text;html=1;align=center;verticalAlign=middle;resizable=0;points=[];autosize=1;strokeColor=none;fillColor=none;" vertex="1" parent="1">
          <mxGeometry x="799" y="880.5" width="40" height="30" as="geometry" />
        </mxCell>
        <mxCell id="XRlT12yHzMcgYmVl5bae-26" value="transfer files" style="text;html=1;align=center;verticalAlign=middle;resizable=0;points=[];autosize=1;strokeColor=none;fillColor=none;" vertex="1" parent="1">
          <mxGeometry x="807" y="924.5" width="90" height="30" as="geometry" />
        </mxCell>
        <mxCell id="XRlT12yHzMcgYmVl5bae-27" value="&lt;div&gt;&lt;font style=&quot;color: rgb(51, 153, 255);&quot;&gt;&lt;u&gt;CR&lt;/u&gt;&lt;/font&gt;&lt;/div&gt;&lt;div&gt;Frontend&lt;/div&gt;&lt;div&gt;(React)&lt;/div&gt;" style="rounded=1;whiteSpace=wrap;html=1;" vertex="1" parent="1">
          <mxGeometry x="1698.5" y="885" width="120" height="70" as="geometry" />
        </mxCell>
        <mxCell id="XRlT12yHzMcgYmVl5bae-28" style="edgeStyle=orthogonalEdgeStyle;rounded=0;orthogonalLoop=1;jettySize=auto;html=1;startArrow=classic;startFill=1;strokeColor=#FF0000;" edge="1" parent="1" source="XRlT12yHzMcgYmVl5bae-27" target="XRlT12yHzMcgYmVl5bae-14">
          <mxGeometry relative="1" as="geometry" />
        </mxCell>
        <mxCell id="XRlT12yHzMcgYmVl5bae-29" style="edgeStyle=orthogonalEdgeStyle;rounded=0;orthogonalLoop=1;jettySize=auto;html=1;strokeColor=#FF0000;" edge="1" parent="1" source="XRlT12yHzMcgYmVl5bae-30" target="XRlT12yHzMcgYmVl5bae-33">
          <mxGeometry relative="1" as="geometry" />
        </mxCell>
        <mxCell id="XRlT12yHzMcgYmVl5bae-30" value="&lt;u style=&quot;color: rgb(51, 153, 255);&quot;&gt;GCS&lt;/u&gt;&lt;br&gt;&lt;div style=&quot;text-align: left;&quot;&gt;- stock files for &lt;br&gt;CROCUS and Credit Reseau&lt;/div&gt;" style="rounded=1;whiteSpace=wrap;html=1;" vertex="1" parent="1">
          <mxGeometry x="1700" y="660" width="190.75" height="90" as="geometry" />
        </mxCell>
        <mxCell id="XRlT12yHzMcgYmVl5bae-31" style="edgeStyle=orthogonalEdgeStyle;rounded=0;orthogonalLoop=1;jettySize=auto;html=1;" edge="1" parent="1" source="XRlT12yHzMcgYmVl5bae-32" target="XRlT12yHzMcgYmVl5bae-72">
          <mxGeometry relative="1" as="geometry" />
        </mxCell>
        <mxCell id="XRlT12yHzMcgYmVl5bae-32" value="&lt;font color=&quot;#3399ff&quot;&gt;&lt;u&gt;Cloud Scheduler&lt;/u&gt;&lt;/font&gt;&lt;div&gt;&lt;div style=&quot;text-align: left;&quot;&gt;- transfer data&lt;span style=&quot;background-color: transparent; color: light-dark(rgb(0, 0, 0), rgb(255, 255, 255));&quot;&gt;&lt;/span&gt;&lt;/div&gt;&lt;div style=&quot;text-align: left;&quot;&gt;&lt;span style=&quot;background-color: transparent; color: light-dark(rgb(0, 0, 0), rgb(255, 255, 255));&quot;&gt;- generate files&amp;nbsp;&lt;/span&gt;&lt;/div&gt;&lt;/div&gt;" style="rounded=1;whiteSpace=wrap;html=1;" vertex="1" parent="1">
          <mxGeometry x="1593.2" y="403.6199999999999" width="155.84" height="70" as="geometry" />
        </mxCell>
        <mxCell id="XRlT12yHzMcgYmVl5bae-33" value="Server&lt;br&gt;(Credit reseau)" style="image;points=[];aspect=fixed;html=1;align=center;shadow=0;dashed=0;image=img/lib/allied_telesis/computer_and_terminals/Server_Desktop.svg;" vertex="1" parent="1">
          <mxGeometry x="2071" y="655" width="62" height="78.59" as="geometry" />
        </mxCell>
        <mxCell id="XRlT12yHzMcgYmVl5bae-34" value="Batch" style="rounded=0;whiteSpace=wrap;html=1;" vertex="1" parent="1">
          <mxGeometry x="400" y="566" width="102.25" height="30" as="geometry" />
        </mxCell>
        <mxCell id="XRlT12yHzMcgYmVl5bae-35" style="edgeStyle=orthogonalEdgeStyle;rounded=0;orthogonalLoop=1;jettySize=auto;html=1;" edge="1" parent="1" source="XRlT12yHzMcgYmVl5bae-36" target="XRlT12yHzMcgYmVl5bae-39">
          <mxGeometry relative="1" as="geometry" />
        </mxCell>
        <mxCell id="XRlT12yHzMcgYmVl5bae-36" value="Dataset refined" style="rounded=1;whiteSpace=wrap;html=1;" vertex="1" parent="1">
          <mxGeometry x="1117.23" y="498" width="137.5" height="32.5" as="geometry" />
        </mxCell>
        <mxCell id="XRlT12yHzMcgYmVl5bae-37" style="edgeStyle=orthogonalEdgeStyle;rounded=0;orthogonalLoop=1;jettySize=auto;html=1;" edge="1" parent="1" source="XRlT12yHzMcgYmVl5bae-38" target="XRlT12yHzMcgYmVl5bae-36">
          <mxGeometry relative="1" as="geometry" />
        </mxCell>
        <mxCell id="XRlT12yHzMcgYmVl5bae-38" value="Dataset raw" style="rounded=1;whiteSpace=wrap;html=1;" vertex="1" parent="1">
          <mxGeometry x="1117.23" y="563.5" width="137.5" height="32.5" as="geometry" />
        </mxCell>
        <mxCell id="XRlT12yHzMcgYmVl5bae-39" value="Dataset business" style="rounded=1;whiteSpace=wrap;html=1;" vertex="1" parent="1">
          <mxGeometry x="1117.23" y="440.75" width="137.5" height="32.5" as="geometry" />
        </mxCell>
        <mxCell id="XRlT12yHzMcgYmVl5bae-40" value="&lt;font color=&quot;#3399ff&quot;&gt;&lt;u&gt;Airflow&lt;/u&gt;&lt;/font&gt;&lt;div&gt;&lt;font style=&quot;color: rgb(0, 0, 0);&quot;&gt;orchestre&lt;/font&gt;&lt;/div&gt;" style="rounded=1;whiteSpace=wrap;html=1;" vertex="1" parent="1">
          <mxGeometry x="938" y="407" width="110" height="50" as="geometry" />
        </mxCell>
        <mxCell id="XRlT12yHzMcgYmVl5bae-41" style="edgeStyle=orthogonalEdgeStyle;rounded=0;orthogonalLoop=1;jettySize=auto;html=1;entryX=0;entryY=0.5;entryDx=0;entryDy=0;strokeColor=#FF0000;" edge="1" parent="1" source="XRlT12yHzMcgYmVl5bae-42" target="XRlT12yHzMcgYmVl5bae-38">
          <mxGeometry relative="1" as="geometry" />
        </mxCell>
        <mxCell id="XRlT12yHzMcgYmVl5bae-42" value="&lt;font color=&quot;#3399ff&quot;&gt;&lt;u&gt;GCS&lt;/u&gt;&lt;/font&gt;&lt;div&gt;stock files&lt;/div&gt;" style="rounded=1;whiteSpace=wrap;html=1;" vertex="1" parent="1">
          <mxGeometry x="937.06" y="554.75" width="110" height="50" as="geometry" />
        </mxCell>
        <mxCell id="XRlT12yHzMcgYmVl5bae-43" value="&lt;font color=&quot;#3399ff&quot;&gt;&lt;u&gt;GCF&lt;/u&gt;&lt;/font&gt;&lt;div&gt;&lt;font style=&quot;color: rgb(0, 0, 0);&quot;&gt;trigger&amp;nbsp;&lt;/font&gt;&lt;span style=&quot;background-color: transparent; color: light-dark(rgb(0, 0, 0), rgb(255, 255, 255));&quot;&gt;data loading&lt;/span&gt;&lt;/div&gt;" style="rounded=1;whiteSpace=wrap;html=1;" vertex="1" parent="1">
          <mxGeometry x="938.5" y="473.6199999999999" width="110" height="51.88" as="geometry" />
        </mxCell>
        <mxCell id="XRlT12yHzMcgYmVl5bae-44" value="&lt;font style=&quot;color: rgb(51, 153, 255);&quot;&gt;&lt;u&gt;BQ&lt;/u&gt;&lt;/font&gt;&lt;div&gt;&lt;br&gt;&lt;/div&gt;" style="rounded=1;whiteSpace=wrap;html=1;verticalAlign=top;arcSize=4;" vertex="1" parent="1">
          <mxGeometry x="1094.46" y="750" width="196.04" height="209" as="geometry" />
        </mxCell>
        <mxCell id="XRlT12yHzMcgYmVl5bae-45" style="edgeStyle=orthogonalEdgeStyle;rounded=0;orthogonalLoop=1;jettySize=auto;html=1;" edge="1" parent="1" source="XRlT12yHzMcgYmVl5bae-46" target="XRlT12yHzMcgYmVl5bae-49">
          <mxGeometry relative="1" as="geometry" />
        </mxCell>
        <mxCell id="XRlT12yHzMcgYmVl5bae-46" value="Dataset refined" style="rounded=1;whiteSpace=wrap;html=1;" vertex="1" parent="1">
          <mxGeometry x="1122.73" y="848" width="137.5" height="32.5" as="geometry" />
        </mxCell>
        <mxCell id="XRlT12yHzMcgYmVl5bae-47" style="edgeStyle=orthogonalEdgeStyle;rounded=0;orthogonalLoop=1;jettySize=auto;html=1;" edge="1" parent="1" source="XRlT12yHzMcgYmVl5bae-48" target="XRlT12yHzMcgYmVl5bae-46">
          <mxGeometry relative="1" as="geometry" />
        </mxCell>
        <mxCell id="XRlT12yHzMcgYmVl5bae-48" value="Dataset raw" style="rounded=1;whiteSpace=wrap;html=1;" vertex="1" parent="1">
          <mxGeometry x="1122.73" y="910" width="137.5" height="32.5" as="geometry" />
        </mxCell>
        <mxCell id="XRlT12yHzMcgYmVl5bae-49" value="Dataset business" style="rounded=1;whiteSpace=wrap;html=1;" vertex="1" parent="1">
          <mxGeometry x="1122.73" y="785.25" width="137.5" height="32.5" as="geometry" />
        </mxCell>
        <mxCell id="XRlT12yHzMcgYmVl5bae-50" style="edgeStyle=orthogonalEdgeStyle;rounded=0;orthogonalLoop=1;jettySize=auto;html=1;entryX=0;entryY=0.5;entryDx=0;entryDy=0;strokeColor=#FF0000;" edge="1" parent="1" source="XRlT12yHzMcgYmVl5bae-51" target="XRlT12yHzMcgYmVl5bae-48">
          <mxGeometry relative="1" as="geometry" />
        </mxCell>
        <mxCell id="XRlT12yHzMcgYmVl5bae-51" value="&lt;font color=&quot;#3399ff&quot;&gt;&lt;u&gt;GCS&lt;/u&gt;&lt;/font&gt;&lt;div&gt;&lt;font color=&quot;#3399ff&quot;&gt;&lt;span style=&quot;color: rgb(0, 0, 0);&quot;&gt;stock files&lt;/span&gt;&lt;u&gt;&lt;/u&gt;&lt;/font&gt;&lt;/div&gt;" style="rounded=1;whiteSpace=wrap;html=1;" vertex="1" parent="1">
          <mxGeometry x="953.56" y="901.25" width="110" height="50" as="geometry" />
        </mxCell>
        <mxCell id="XRlT12yHzMcgYmVl5bae-52" value="&lt;font color=&quot;#3399ff&quot;&gt;&lt;u&gt;Airflow&lt;/u&gt;&lt;/font&gt;&lt;div&gt;&lt;font style=&quot;color: rgb(0, 0, 0);&quot;&gt;orchestre&lt;/font&gt;&lt;/div&gt;" style="rounded=1;whiteSpace=wrap;html=1;" vertex="1" parent="1">
          <mxGeometry x="954.5" y="750" width="110" height="50" as="geometry" />
        </mxCell>
        <mxCell id="XRlT12yHzMcgYmVl5bae-53" value="&lt;font color=&quot;#3399ff&quot;&gt;&lt;u&gt;GCF&lt;/u&gt;&lt;/font&gt;&lt;div&gt;&lt;font style=&quot;color: rgb(0, 0, 0);&quot;&gt;trigger data loading&lt;/font&gt;&lt;/div&gt;" style="rounded=1;whiteSpace=wrap;html=1;" vertex="1" parent="1">
          <mxGeometry x="953.56" y="826.75" width="110" height="50" as="geometry" />
        </mxCell>
        <mxCell id="XRlT12yHzMcgYmVl5bae-54" value="transfer files" style="text;html=1;align=center;verticalAlign=middle;resizable=0;points=[];autosize=1;strokeColor=none;fillColor=none;" vertex="1" parent="1">
          <mxGeometry x="810" y="580" width="90" height="30" as="geometry" />
        </mxCell>
        <mxCell id="XRlT12yHzMcgYmVl5bae-55" value="NiFi" style="text;html=1;align=center;verticalAlign=middle;resizable=0;points=[];autosize=1;strokeColor=none;fillColor=none;" vertex="1" parent="1">
          <mxGeometry x="823.5" y="550" width="40" height="30" as="geometry" />
        </mxCell>
        <mxCell id="XRlT12yHzMcgYmVl5bae-56" value="NiFi" style="text;html=1;align=center;verticalAlign=middle;resizable=0;points=[];autosize=1;strokeColor=none;fillColor=none;" vertex="1" parent="1">
          <mxGeometry x="822" y="894.5" width="40" height="30" as="geometry" />
        </mxCell>
        <mxCell id="XRlT12yHzMcgYmVl5bae-57" style="edgeStyle=orthogonalEdgeStyle;rounded=0;orthogonalLoop=1;jettySize=auto;html=1;startArrow=classic;startFill=1;strokeColor=#FF0000;" edge="1" parent="1" source="XRlT12yHzMcgYmVl5bae-58" target="XRlT12yHzMcgYmVl5bae-14">
          <mxGeometry relative="1" as="geometry">
            <Array as="points">
              <mxPoint x="1680" y="810" />
              <mxPoint x="1680" y="810" />
            </Array>
            <mxPoint x="1554.962962962963" y="817.75" as="sourcePoint" />
            <mxPoint x="1731.5" y="812.7870370370365" as="targetPoint" />
          </mxGeometry>
        </mxCell>
        <mxCell id="XRlT12yHzMcgYmVl5bae-58" value="database" style="rounded=1;whiteSpace=wrap;html=1;" vertex="1" parent="1">
          <mxGeometry x="1458.23" y="770" width="137.5" height="61" as="geometry" />
        </mxCell>
        <mxCell id="XRlT12yHzMcgYmVl5bae-59" value="(3)" style="text;html=1;align=center;verticalAlign=middle;resizable=0;points=[];autosize=1;strokeColor=none;fillColor=none;" vertex="1" parent="1">
          <mxGeometry x="1065.46" y="903" width="40" height="30" as="geometry" />
        </mxCell>
        <mxCell id="XRlT12yHzMcgYmVl5bae-60" value="load" style="text;html=1;align=center;verticalAlign=middle;resizable=0;points=[];autosize=1;strokeColor=none;fillColor=none;" vertex="1" parent="1">
          <mxGeometry x="1065.73" y="920.5" width="50" height="30" as="geometry" />
        </mxCell>
        <mxCell id="XRlT12yHzMcgYmVl5bae-61" value="(4)" style="text;html=1;align=center;verticalAlign=middle;resizable=0;points=[];autosize=1;strokeColor=none;fillColor=none;" vertex="1" parent="1">
          <mxGeometry x="1632.5" y="472.5" width="40" height="30" as="geometry" />
        </mxCell>
        <mxCell id="XRlT12yHzMcgYmVl5bae-62" value="(7)&lt;div&gt;modify data&lt;/div&gt;" style="text;html=1;align=center;verticalAlign=middle;resizable=0;points=[];autosize=1;strokeColor=none;fillColor=none;" vertex="1" parent="1">
          <mxGeometry x="2121.5" y="900" width="90" height="40" as="geometry" />
        </mxCell>
        <mxCell id="XRlT12yHzMcgYmVl5bae-63" value="trigger" style="text;html=1;align=center;verticalAlign=middle;resizable=0;points=[];autosize=1;strokeColor=none;fillColor=none;" vertex="1" parent="1">
          <mxGeometry x="1665" y="472.5" width="60" height="30" as="geometry" />
        </mxCell>
        <mxCell id="XRlT12yHzMcgYmVl5bae-64" value="load data in database" style="text;html=1;align=center;verticalAlign=middle;resizable=0;points=[];autosize=1;strokeColor=none;fillColor=none;" vertex="1" parent="1">
          <mxGeometry x="1404" y="614.5" width="140" height="30" as="geometry" />
        </mxCell>
        <mxCell id="XRlT12yHzMcgYmVl5bae-65" value="(3)" style="text;html=1;align=center;verticalAlign=middle;resizable=0;points=[];autosize=1;strokeColor=none;fillColor=none;" vertex="1" parent="1">
          <mxGeometry x="1050.92" y="555" width="40" height="30" as="geometry" />
        </mxCell>
        <mxCell id="XRlT12yHzMcgYmVl5bae-66" value="load" style="text;html=1;align=center;verticalAlign=middle;resizable=0;points=[];autosize=1;strokeColor=none;fillColor=none;" vertex="1" parent="1">
          <mxGeometry x="1051.19" y="572.5" width="50" height="30" as="geometry" />
        </mxCell>
        <mxCell id="XRlT12yHzMcgYmVl5bae-67" style="edgeStyle=orthogonalEdgeStyle;rounded=0;orthogonalLoop=1;jettySize=auto;html=1;entryX=1;entryY=0.5;entryDx=0;entryDy=0;strokeColor=#FF0000;" edge="1" parent="1" source="XRlT12yHzMcgYmVl5bae-72" target="XRlT12yHzMcgYmVl5bae-39">
          <mxGeometry relative="1" as="geometry">
            <Array as="points">
              <mxPoint x="1370" y="520" />
              <mxPoint x="1370" y="457" />
            </Array>
          </mxGeometry>
        </mxCell>
        <mxCell id="XRlT12yHzMcgYmVl5bae-68" style="edgeStyle=orthogonalEdgeStyle;rounded=0;orthogonalLoop=1;jettySize=auto;html=1;strokeColor=#FF0000;" edge="1" parent="1" source="XRlT12yHzMcgYmVl5bae-72" target="XRlT12yHzMcgYmVl5bae-58">
          <mxGeometry relative="1" as="geometry">
            <Array as="points">
              <mxPoint x="1410" y="538" />
              <mxPoint x="1410" y="801" />
            </Array>
          </mxGeometry>
        </mxCell>
        <mxCell id="XRlT12yHzMcgYmVl5bae-69" style="edgeStyle=orthogonalEdgeStyle;rounded=0;orthogonalLoop=1;jettySize=auto;html=1;entryX=1;entryY=0.5;entryDx=0;entryDy=0;strokeColor=#FF0000;" edge="1" parent="1" source="XRlT12yHzMcgYmVl5bae-72" target="XRlT12yHzMcgYmVl5bae-49">
          <mxGeometry relative="1" as="geometry">
            <Array as="points">
              <mxPoint x="1370" y="520" />
              <mxPoint x="1370" y="802" />
            </Array>
          </mxGeometry>
        </mxCell>
        <mxCell id="XRlT12yHzMcgYmVl5bae-70" style="edgeStyle=orthogonalEdgeStyle;rounded=0;orthogonalLoop=1;jettySize=auto;html=1;entryX=0.5;entryY=0;entryDx=0;entryDy=0;strokeColor=#FF0000;" edge="1" parent="1" source="XRlT12yHzMcgYmVl5bae-72" target="XRlT12yHzMcgYmVl5bae-30">
          <mxGeometry relative="1" as="geometry">
            <Array as="points">
              <mxPoint x="1580" y="540" />
              <mxPoint x="1795" y="540" />
            </Array>
          </mxGeometry>
        </mxCell>
        <mxCell id="XRlT12yHzMcgYmVl5bae-71" style="edgeStyle=orthogonalEdgeStyle;rounded=0;orthogonalLoop=1;jettySize=auto;html=1;strokeColor=#FF0000;" edge="1" parent="1" source="XRlT12yHzMcgYmVl5bae-72" target="XRlT12yHzMcgYmVl5bae-58">
          <mxGeometry relative="1" as="geometry">
            <mxPoint x="1520.4951851851847" y="492" as="sourcePoint" />
            <mxPoint x="1466.272962962963" y="770" as="targetPoint" />
            <Array as="points">
              <mxPoint x="1640" y="790" />
            </Array>
          </mxGeometry>
        </mxCell>
        <mxCell id="XRlT12yHzMcgYmVl5bae-72" value="&lt;u style=&quot;color: rgb(51, 153, 255);&quot;&gt;GCF&lt;/u&gt;&lt;br&gt;&lt;div style=&quot;text-align: left;&quot;&gt;- python script to transfer data from BQ to Cloud SQL&lt;/div&gt;&lt;div style=&quot;text-align: left;&quot;&gt;-&amp;nbsp;&lt;span style=&quot;background-color: transparent; color: light-dark(rgb(0, 0, 0), rgb(255, 255, 255));&quot;&gt;python script to&amp;nbsp;&lt;/span&gt;&lt;span style=&quot;background-color: transparent; color: light-dark(rgb(0, 0, 0), rgb(255, 255, 255));&quot;&gt;generate files and save them in GCS&lt;/span&gt;&lt;/div&gt;" style="rounded=1;whiteSpace=wrap;html=1;" vertex="1" parent="1">
          <mxGeometry x="1510" y="502.5" width="320" height="70" as="geometry" />
        </mxCell>
        <mxCell id="XRlT12yHzMcgYmVl5bae-73" value="get data from dataset" style="text;html=1;align=center;verticalAlign=middle;resizable=0;points=[];autosize=1;strokeColor=none;fillColor=none;" vertex="1" parent="1">
          <mxGeometry x="1362" y="490" width="140" height="30" as="geometry" />
        </mxCell>
        <mxCell id="XRlT12yHzMcgYmVl5bae-74" value="generate files" style="text;html=1;align=center;verticalAlign=middle;resizable=0;points=[];autosize=1;strokeColor=none;fillColor=none;" vertex="1" parent="1">
          <mxGeometry x="1788.5" y="602.5" width="100" height="30" as="geometry" />
        </mxCell>
        <mxCell id="XRlT12yHzMcgYmVl5bae-75" value="(5)" style="text;html=1;align=center;verticalAlign=middle;resizable=0;points=[];autosize=1;strokeColor=none;fillColor=none;" vertex="1" parent="1">
          <mxGeometry x="1370" y="473.6199999999999" width="40" height="30" as="geometry" />
        </mxCell>
        <mxCell id="XRlT12yHzMcgYmVl5bae-76" value="(6)" style="text;html=1;align=center;verticalAlign=middle;resizable=0;points=[];autosize=1;strokeColor=none;fillColor=none;" vertex="1" parent="1">
          <mxGeometry x="1401" y="596" width="40" height="30" as="geometry" />
        </mxCell>
        <mxCell id="XRlT12yHzMcgYmVl5bae-77" value="(7.1)" style="text;html=1;align=center;verticalAlign=middle;resizable=0;points=[];autosize=1;strokeColor=none;fillColor=none;" vertex="1" parent="1">
          <mxGeometry x="1623.1599999999999" y="787" width="50" height="30" as="geometry" />
        </mxCell>
        <mxCell id="XRlT12yHzMcgYmVl5bae-78" value="(8)" style="text;html=1;align=center;verticalAlign=middle;resizable=0;points=[];autosize=1;strokeColor=none;fillColor=none;" vertex="1" parent="1">
          <mxGeometry x="1613.5" y="472.5" width="40" height="30" as="geometry" />
        </mxCell>
        <mxCell id="XRlT12yHzMcgYmVl5bae-79" value="(9)" style="text;html=1;align=center;verticalAlign=middle;resizable=0;points=[];autosize=1;strokeColor=none;fillColor=none;" vertex="1" parent="1">
          <mxGeometry x="1607" y="596" width="40" height="30" as="geometry" />
        </mxCell>
        <mxCell id="XRlT12yHzMcgYmVl5bae-80" value="(10)" style="text;html=1;align=center;verticalAlign=middle;resizable=0;points=[];autosize=1;strokeColor=none;fillColor=none;" vertex="1" parent="1">
          <mxGeometry x="1759.41" y="604.75" width="40" height="30" as="geometry" />
        </mxCell>
        <mxCell id="XRlT12yHzMcgYmVl5bae-81" value="transfer files" style="text;html=1;align=center;verticalAlign=middle;resizable=0;points=[];autosize=1;strokeColor=none;fillColor=none;" vertex="1" parent="1">
          <mxGeometry x="1926.5" y="694" width="90" height="30" as="geometry" />
        </mxCell>
        <mxCell id="XRlT12yHzMcgYmVl5bae-82" value="NiFi" style="text;html=1;align=center;verticalAlign=middle;resizable=0;points=[];autosize=1;strokeColor=none;fillColor=none;" vertex="1" parent="1">
          <mxGeometry x="1951.5" y="670" width="40" height="30" as="geometry" />
        </mxCell>
        <mxCell id="XRlT12yHzMcgYmVl5bae-83" value="get data from db" style="text;html=1;align=center;verticalAlign=middle;resizable=0;points=[];autosize=1;strokeColor=none;fillColor=none;" vertex="1" parent="1">
          <mxGeometry x="1631.5" y="596" width="110" height="30" as="geometry" />
        </mxCell>
        <mxCell id="XRlT12yHzMcgYmVl5bae-84" value="(11)" style="text;html=1;align=center;verticalAlign=middle;resizable=0;points=[];autosize=1;strokeColor=none;fillColor=none;" vertex="1" parent="1">
          <mxGeometry x="1924.5" y="664" width="40" height="30" as="geometry" />
        </mxCell>
        <mxCell id="XRlT12yHzMcgYmVl5bae-85" value="(garder les fichiers pendant 2 ans)" style="text;html=1;align=center;verticalAlign=middle;resizable=0;points=[];autosize=1;strokeColor=none;fillColor=none;" vertex="1" parent="1">
          <mxGeometry x="1690.38" y="720.5900000000001" width="210" height="30" as="geometry" />
        </mxCell>
      </root>
    </mxGraphModel>
  </diagram>
</mxfile>
